<?xml version="1.0" standalone="no"?>
<!DOCTYPE svg PUBLIC "-//W3C//DTD SVG 20010904//EN"
 "http://www.w3.org/TR/2001/REC-SVG-20010904/DTD/svg10.dtd">
<svg version="1.0" xmlns="http://www.w3.org/2000/svg"
 width="192.000000pt" height="192.000000pt" viewBox="0 0 192.000000 192.000000"
 preserveAspectRatio="xMidYMid meet">

<g transform="translate(0.000000,192.000000) scale(0.100000,-0.100000)"
fill="#000000" stroke="none">
<path d="M420 1414 c0 -3 16 -26 35 -51 19 -25 35 -56 35 -69 0 -27 -34 -48
-93 -59 -20 -4 -37 -12 -37 -18 0 -6 37 -8 113 -3 169 11 173 27 38 140 -75
63 -91 73 -91 60z"/>
<path d="M382 1338 c-30 -30 2 -73 46 -61 27 7 29 40 5 59 -22 17 -36 17 -51
2z"/>
<path d="M686 1278 c4 -7 31 -40 59 -73 75 -86 129 -162 161 -225 l29 -55 3
-282 c4 -363 -1 -385 -99 -407 l-54 -13 0 -54 0 -54 53 1 c102 3 172 46 209
129 15 35 18 83 23 360 5 301 6 323 27 367 24 53 78 128 171 241 35 42 61 77
57 77 -15 0 -136 -100 -226 -187 l-95 -92 -60 61 c-54 55 -248 218 -260 218
-3 0 -2 -6 2 -12z"/>
<path d="M955 1235 c-30 -29 -32 -59 -6 -102 36 -57 85 -53 115 11 21 45 12
82 -25 101 -39 21 -56 19 -84 -10z"/>
<path d="M1590 1159 c-131 -39 -150 -49 -150 -75 0 -20 15 -31 101 -75 100
-50 142 -58 84 -16 -49 36 -65 56 -65 81 0 24 40 66 64 66 17 1 48 27 39 33
-4 3 -37 -4 -73 -14z"/>
<path d="M330 1160 c0 -5 23 -19 50 -31 83 -36 89 -74 19 -129 -38 -31 -49
-50 -29 -50 18 0 191 104 200 120 17 31 -12 50 -114 76 -109 27 -126 29 -126
14z"/>
<path d="M689 1137 c40 -42 36 -62 -15 -83 -50 -21 -39 -25 26 -9 113 27 115
40 20 92 l-65 35 34 -35z"/>
<path d="M1282 1134 c-79 -45 -78 -61 3 -86 71 -21 104 -22 58 -2 -18 7 -37
23 -43 35 -10 17 -6 25 25 55 46 43 36 43 -43 -2z"/>
<path d="M635 1110 c-9 -15 3 -30 24 -30 25 0 33 11 20 27 -13 15 -35 17 -44
3z"/>
<path d="M1331 1106 c-10 -12 -8 -17 6 -25 24 -12 48 2 40 23 -8 20 -31 21
-46 2z"/>
<path d="M1611 1093 c-19 -15 -20 -21 -9 -35 30 -41 98 -12 72 30 -16 24 -37
26 -63 5z"/>
<path d="M336 1084 c-9 -8 -16 -19 -16 -24 0 -13 30 -40 43 -40 20 0 57 30 57
45 0 16 -30 35 -54 35 -8 0 -22 -7 -30 -16z"/>
<path d="M1203 993 c-7 -2 -13 -11 -13 -18 0 -14 90 -128 97 -121 2 2 -4 19
-13 39 -23 49 -14 67 36 67 58 0 49 17 -12 25 -29 3 -60 8 -68 10 -8 2 -21 1
-27 -2z"/>
<path d="M446 924 c-95 -16 -123 -34 -53 -34 60 0 107 -23 107 -52 0 -12 -12
-41 -26 -65 -32 -55 -27 -79 9 -38 128 150 138 165 117 190 -15 18 -46 17
-154 -1z"/>
<path d="M1282 924 c5 -26 37 -42 47 -25 14 22 2 41 -26 41 -17 0 -24 -5 -21
-16z"/>
<path d="M1110 853 c1 -33 23 -119 33 -129 4 -4 7 13 7 38 0 55 15 64 66 43
51 -21 41 -3 -21 39 -67 44 -85 46 -85 9z"/>
<path d="M408 853 c-9 -2 -20 -12 -23 -22 -16 -51 41 -71 72 -25 16 25 16 27
-2 40 -10 8 -21 13 -24 13 -3 -1 -14 -3 -23 -6z"/>
<path d="M1170 770 c0 -11 7 -23 16 -27 20 -8 36 17 22 34 -16 20 -38 15 -38
-7z"/>
<path d="M566 721 c-49 -20 -92 -43 -94 -50 -3 -10 1 -12 19 -7 64 18 105 18
122 1 21 -20 21 -40 2 -95 -18 -50 -18 -60 -5 -60 13 0 110 193 110 219 0 20
-20 32 -48 30 -9 -1 -57 -18 -106 -38z"/>
<path d="M741 586 c-39 -47 -71 -90 -71 -95 0 -17 15 -13 36 10 27 30 72 51
93 44 21 -6 36 -40 46 -97 12 -75 25 -37 25 73 0 179 -23 191 -129 65z"/>
<path d="M538 639 c-24 -14 -23 -56 2 -69 16 -8 24 -6 40 10 41 41 6 88 -42
59z"/>
<path d="M751 494 c-26 -33 -26 -36 -1 -59 19 -17 21 -17 40 0 22 20 26 55 8
73 -17 17 -24 15 -47 -14z"/>
</g>
</svg>
